<svg xmlns="http://www.w3.org/2000/svg" width="42.642" height="49.16" viewBox="0 0 42.642 49.16">
    <defs>
        <style>
            .cls-1{fill:rgba(1,128,107,.09)}.cls-2,.cls-3{fill:#C9A86C}.cls-2{fill-rule:evenodd}
        </style>
    </defs>
    <g id="credentials-credentials-icon" transform="translate(.297)">
        <ellipse id="Ellipse_66" cx="21" cy="21.5" class="cls-1" data-name="Ellipse 66" rx="21" ry="21.5" transform="translate(-.297 2.89)"/>
        <path id="Path_304" d="M76.9 36.671h-1.718v-.887a.783.783 0 1 0-1.565 0v.887h-1.774v-.887a.783.783 0 1 0-1.566 0v.887H68.5v-.887a.783.783 0 0 0-1.566 0v.887h-1.771v-.887a.783.783 0 1 0-1.566 0v.887h-1.774v-.887a.783.783 0 0 0-1.566 0v.887h-1.774v-.887a.783.783 0 0 0-1.566 0v.887h-1.775v-.887a.783.783 0 1 0-1.566 0v.887H51.8v-.887a.783.783 0 0 0-1.566 0v.887h-1.72a2.456 2.456 0 0 0-2.453 2.452V76.7a2.456 2.456 0 0 0 2.453 2.452h15.865a.783.783 0 1 0 0-1.565H48.514a.888.888 0 0 1-.887-.887V39.123a.888.888 0 0 1 .887-.887h1.722v.887a.783.783 0 1 0 1.566 0v-.887h1.774v.887a.783.783 0 0 0 1.566 0v-.887h1.774v.887a.783.783 0 1 0 1.566 0v-.887h1.774v.887a.783.783 0 0 0 1.566 0v-.887H63.6v.887a.783.783 0 1 0 1.566 0v-.887h1.774v.887a.783.783 0 1 0 1.566 0v-.887h1.774v.887a.783.783 0 0 0 1.566 0v-.887h1.774v.887a.783.783 0 0 0 1.566 0v-.887h1.722a.888.888 0 0 1 .887.887v25.051a.783.783 0 0 0 1.565 0V39.123a2.456 2.456 0 0 0-2.46-2.452z" class="cls-2" data-name="Path 304" transform="translate(-42.023 -35)"/>
        <path id="Path_305" d="M79.6 72.62a9.132 9.132 0 1 0 9.132 9.132A9.142 9.142 0 0 0 79.6 72.62zm0 16.7a7.567 7.567 0 1 1 7.567-7.567A7.576 7.576 0 0 1 79.6 89.32z" class="cls-3" data-name="Path 305" transform="translate(-46.385 -41.725)"/>
        <path id="Path_306" d="M85.859 80.893a.783.783 0 0 0-.653-.536l-2.891-.342-1.22-2.644a.783.783 0 0 0-1.422 0l-1.22 2.644-2.891.342a.783.783 0 0 0-.44 1.353l2.138 1.977-.567 2.856a.783.783 0 0 0 1.15.835l2.541-1.422 2.541 1.422a.782.782 0 0 0 1.15-.835l-.567-2.856 2.137-1.977a.783.783 0 0 0 .214-.817zm-3.737 1.941a.783.783 0 0 0-.236.728l.322 1.621-1.442-.807a.783.783 0 0 0-.764 0l-1.443.807.322-1.621a.783.783 0 0 0-.236-.728l-1.214-1.123 1.642-.194a.784.784 0 0 0 .618-.45l.692-1.5.692 1.5a.784.784 0 0 0 .618.45l1.642.194-1.214 1.123z" class="cls-3" data-name="Path 306" transform="translate(-47.172 -42.492)"/>
        <path id="Path_307" d="M75.962 43.134h-25.05a.783.783 0 1 0 0 1.565h25.05a.783.783 0 1 0 0-1.565zm-18.37 8.35a.783.783 0 0 0-.783.783 1.722 1.722 0 1 1-1.722-1.722.783.783 0 0 0 0-1.566 3.288 3.288 0 1 0 3.288 3.288.783.783 0 0 0-.783-.783zm0 9.185a.783.783 0 0 0-.783.783 1.722 1.722 0 1 1-1.722-1.722.783.783 0 0 0 0-1.566 3.288 3.288 0 1 0 3.288 3.288.783.783 0 0 0-.783-.783zm16.7 1.67h-13.36a.783.783 0 0 0 0 1.565h13.359a.783.783 0 1 0 0-1.565zM70.951 59H60.932a.783.783 0 1 0 0 1.565h10.019a.783.783 0 1 0 0-1.565zm-5.845 12.524h-4.174a.783.783 0 0 0 0 1.565h4.174a.783.783 0 0 0 0-1.565zm1.67-3.34h-5.845a.783.783 0 1 0 0 1.566h5.846a.783.783 0 1 0 0-1.566zm7.515-15.03H60.932a.783.783 0 0 0 0 1.565h13.359a.783.783 0 1 0 0-1.565zm-3.34-3.34H60.932a.783.783 0 0 0 0 1.565h10.019a.783.783 0 1 0 0-1.565zM57.592 69.855a.783.783 0 0 0-.783.783 1.722 1.722 0 1 1-1.722-1.722.783.783 0 0 0 0-1.566 3.288 3.288 0 1 0 3.288 3.288.783.783 0 0 0-.783-.783z" class="cls-2" data-name="Path 307" transform="translate(-42.75 -36.454)"/>
    </g>
</svg>
