<svg xmlns="http://www.w3.org/2000/svg" width="42.357" height="43.445" viewBox="0 0 42.357 43.445">
    <defs>
        <style>
            .cls-1{fill:rgba(1,128,107,.09)}.cls-2,.cls-3{fill:#C9A86C}.cls-2{fill-rule:evenodd}
        </style>
    </defs>
    <g id="credentials-verifications-icon" transform="translate(-.001)">
        <ellipse id="Ellipse_71" cx="20.5" cy="21" class="cls-1" data-name="Ellipse 71" rx="20.5" ry="21" transform="translate(.001 1.445)"/>
        <path id="Path_322" d="M70.3 45a.63.63 0 0 0 .63-.63v-6.72A2.649 2.649 0 0 0 68.287 35H42.746a2.649 2.649 0 0 0-2.646 2.647v33.607a2.649 2.649 0 0 0 2.646 2.646h25.541a2.649 2.649 0 0 0 2.647-2.646v-6.722a.63.63 0 1 0-1.261 0v6.721a1.388 1.388 0 0 1-1.386 1.386H42.746a1.388 1.388 0 0 1-1.387-1.386V37.647a1.388 1.388 0 0 1 1.387-1.387h25.541a1.388 1.388 0 0 1 1.386 1.387v6.721a.631.631 0 0 0 .63.63z" class="cls-2" data-name="Path 322" transform="translate(-35.297 -35)"/>
        <path id="Path_323" d="M58.309 39.137H55.62a.63.63 0 1 0 0 1.261h2.688a.63.63 0 1 0 0-1.261zm-5.377 0a.632.632 0 1 0 .63.634v-.007a.627.627 0 0 0-.63-.627zM58.309 71.4H55.62a.63.63 0 0 0 0 1.261h2.688a.63.63 0 0 0 0-1.261zm10.753-24.954a.63.63 0 0 0 .63-.63v-3.36a.63.63 0 0 0-.63-.63h-24.2a.63.63 0 0 0-.63.63v26.885a.631.631 0 0 0 .63.63h24.2a.63.63 0 0 0 .63-.63v-3.36a.63.63 0 1 0-1.261 0v2.731H45.5V43.086h22.933v2.731a.631.631 0 0 0 .63.63z" class="cls-2" data-name="Path 323" transform="translate(-36.746 -36.449)"/>
        <path id="Path_324" d="M65.665 77.407h-5.378a.63.63 0 0 0 0 1.26h5.377a.63.63 0 1 0 0-1.261zm-8.066 0h-1.345a.63.63 0 0 0 0 1.26H57.6a.63.63 0 1 0 0-1.261z" class="cls-2" data-name="Path 324" transform="translate(-40.741 -49.849)"/>
        <path id="Path_325" d="M62.035 51.549a3.319 3.319 0 1 0 3.319 3.319 3.323 3.323 0 0 0-3.319-3.319zm0 5.377a2.058 2.058 0 1 1 2.059-2.058 2.061 2.061 0 0 1-2.059 2.058zm14.115-4.7a8.017 8.017 0 0 0-5.309 14.031A10.4 10.4 0 0 1 69.02 68.5a.63.63 0 0 0 .459 1.107 10.545 10.545 0 0 0 4.568-1.622 8.024 8.024 0 1 0 2.1-15.768zm0 14.787a6.751 6.751 0 0 1-2.028-.31.63.63 0 0 0-.561.092 8.327 8.327 0 0 1-2.361 1.161 12.51 12.51 0 0 0 1-1.549.63.63 0 0 0-.169-.8 6.753 6.753 0 1 1 4.111 1.4z" class="cls-3" data-name="Path 325" transform="translate(-41.817 -40.795)"/>
        <path id="Path_326" d="M78.361 59.545a1.974 1.974 0 0 0-3.161 2.272l-3.431 3.431a.63.63 0 1 0 .892.891l.5-.505.5.5a.63.63 0 1 0 .891-.891l-.5-.5 2.035-2.035a1.973 1.973 0 0 0 2.273-3.163zm-.892 1.9a.715.715 0 1 1 0-1.01.714.714 0 0 1 0 1.01zm-13.218.572a1.321 1.321 0 0 0-1.791.188 2.026 2.026 0 0 1-3.024 0 1.32 1.32 0 0 0-1.79-.188 5.3 5.3 0 0 0-2.033 4.183v2.016a.631.631 0 0 0 .63.63h9.41a.63.63 0 0 0 .63-.63V66.2a5.3 5.3 0 0 0-2.032-4.185zm.772 5.571h-8.15V66.2a4.051 4.051 0 0 1 1.549-3.195.11.11 0 0 1 .077.042 3.286 3.286 0 0 0 4.9 0 .13.13 0 0 1 .073-.044 4.05 4.05 0 0 1 1.552 3.2v1.386z" class="cls-3" data-name="Path 326" transform="translate(-40.73 -43.392)"/>
    </g>
</svg>
