<svg xmlns="http://www.w3.org/2000/svg" id="credentials-quality-icon" width="46.358" height="46.358" viewBox="0 0 46.358 46.358">
    <defs>
        <style>
            .cls-1{fill:rgba(1,128,107,.09)}.cls-2,.cls-3{fill:#C9A86C}.cls-3{fill-rule:evenodd}
        </style>
    </defs>
    <ellipse id="Ellipse_68" cx="18.5" cy="19" class="cls-1" data-name="Ellipse 68" rx="18.5" ry="19" transform="translate(4.001 4.419)"/>
    <path id="Path_311" d="M73.905 58.511a2.664 2.664 0 0 0-2.662-2.662h-4.891a8.024 8.024 0 0 0 2.115-4.221 2.935 2.935 0 0 0-.706-2.27 2.552 2.552 0 0 0-1.9-.874h-.026a2.653 2.653 0 0 0-2.66 2.639 3.379 3.379 0 0 1-.965 1.323 7.561 7.561 0 0 1-2.881 1.686 3.532 3.532 0 0 0-1.484.97 9.47 9.47 0 0 1-1 .922 1.49 1.49 0 0 0-.7-.173H51.5a1.5 1.5 0 0 0-1.5 1.5v12.386a1.5 1.5 0 0 0 1.5 1.5h4.646a1.5 1.5 0 0 0 1.312-.774h11.85a2.273 2.273 0 0 0 1.958-3.43 2.275 2.275 0 0 0 .774-3.1 2.275 2.275 0 0 0 .695-3.222 2.661 2.661 0 0 0 1.169-2.2zm-2.662 1.21h-.387a.726.726 0 0 0 0 1.452.823.823 0 0 1 0 1.645h-.774a.726.726 0 0 0 0 1.452.823.823 0 0 1 0 1.646h-.774a.726.726 0 1 0 0 1.451.823.823 0 0 1 0 1.646H57.643V62a.726.726 0 1 0-1.452 0v7.742a.048.048 0 0 1-.048.048H51.5a.048.048 0 0 1-.048-.048V57.349a.048.048 0 0 1 .048-.049h4.646a.048.048 0 0 1 .048.048V58.9a.726.726 0 1 0 1.452 0v-1.551c0-.035 0-.07-.005-.1A11.02 11.02 0 0 0 58.9 56.1a2.09 2.09 0 0 1 .873-.583 8.986 8.986 0 0 0 3.522-2.1 3.787 3.787 0 0 0 1.328-2.277 1.189 1.189 0 0 1 .353-.85 1.217 1.217 0 0 1 .867-.35 1.107 1.107 0 0 1 .831.386 1.5 1.5 0 0 1 .348 1.148 7.672 7.672 0 0 1-2.938 4.541.726.726 0 0 0 .457 1.29h6.7a1.21 1.21 0 0 1 0 2.419z" class="cls-2" data-name="Path 311" transform="translate(-38.383 -38.042)"/>
    <path id="Path_312" d="M54.721 71.98a.73.73 0 1 0 .73.73.733.733 0 0 0-.73-.73z" class="cls-3" data-name="Path 312" transform="translate(-39.284 -43.342)"/>
    <path id="Path_313" d="M80.064 58.179l1.247-3.3a.726.726 0 0 0-.112-.711l-2.206-2.753.166-3.524a.726.726 0 0 0-.326-.64l-2.948-1.936-.931-3.4a.726.726 0 0 0-.509-.509l-3.4-.93-1.936-2.948a.726.726 0 0 0-.641-.327l-3.524.167-2.755-2.208a.726.726 0 0 0-.71-.112l-3.3 1.247-3.3-1.247a.726.726 0 0 0-.711.112l-2.752 2.206-3.523-.166a.724.724 0 0 0-.641.327l-1.936 2.948-3.4.931a.726.726 0 0 0-.508.508l-.931 3.4-2.948 1.936a.726.726 0 0 0-.327.641l.167 3.524-2.209 2.754a.726.726 0 0 0-.112.711l1.247 3.3-1.247 3.3a.726.726 0 0 0 .112.711l2.206 2.753-.166 3.522a.726.726 0 0 0 .327.64l2.948 1.936.93 3.4a.727.727 0 0 0 .509.509l3.4.931 1.936 2.948a.728.728 0 0 0 .641.326l3.524-.166 2.754 2.21a.726.726 0 0 0 .711.112l3.3-1.247 3.3 1.247a.726.726 0 0 0 .71-.112l2.753-2.206 3.524.166a.726.726 0 0 0 .64-.326l1.936-2.948 3.4-.931a.726.726 0 0 0 .509-.509l.931-3.4 2.948-1.936a.726.726 0 0 0 .326-.641l-.166-3.524 2.209-2.756a.726.726 0 0 0 .112-.71l-1.247-3.3zm-1.455.257l1.2 3.168-2.118 2.644a.726.726 0 0 0-.159.488l.16 3.384-2.834 1.86a.726.726 0 0 0-.3.416l-.894 3.267-3.268.894a.726.726 0 0 0-.415.3L68.12 77.69l-3.384-.16a.727.727 0 0 0-.488.159L61.6 79.806l-3.168-1.2a.726.726 0 0 0-.513 0l-3.169 1.2-2.64-2.118a.727.727 0 0 0-.488-.159l-3.384.16-1.859-2.831a.726.726 0 0 0-.415-.3l-3.268-.894-.896-3.269a.726.726 0 0 0-.3-.415l-2.831-1.86.16-3.384a.726.726 0 0 0-.159-.488L36.551 61.6l1.2-3.168a.726.726 0 0 0 0-.513l-1.2-3.169 2.118-2.644a.726.726 0 0 0 .159-.488l-.16-3.384 2.832-1.856a.726.726 0 0 0 .3-.415l.893-3.268 3.268-.894a.724.724 0 0 0 .415-.3l1.86-2.831 3.383.16a.726.726 0 0 0 .488-.159l2.644-2.118 3.169 1.2a.732.732 0 0 0 .513 0l3.168-1.2 2.644 2.118a.726.726 0 0 0 .488.159l3.384-.16 1.863 2.83a.73.73 0 0 0 .416.3l3.267.893.894 3.268a.727.727 0 0 0 .3.415l2.831 1.86-.16 3.383a.726.726 0 0 0 .159.488l2.118 2.644-1.2 3.169a.726.726 0 0 0 0 .513z" class="cls-2" data-name="Path 313" transform="translate(-35 -35)"/>
    <path id="Path_314" d="M73.164 47q-.545-.593-1.138-1.138a.726.726 0 1 0-.982 1.069q.547.5 1.051 1.051A.726.726 0 0 0 73.164 47zm-3.717-3.119a18.536 18.536 0 0 0-24.141 27.56.726.726 0 0 0 1.111-.934 17.085 17.085 0 0 1 22.25-25.4.726.726 0 1 0 .78-1.224zm5.7 5.7a.726.726 0 1 0-1.225.78 17.084 17.084 0 0 1-25.4 22.25.726.726 0 1 0-.934 1.111 18.536 18.536 0 0 0 27.56-24.141z" class="cls-3" data-name="Path 314" transform="translate(-36.346 -36.351)"/>
</svg>
