<svg xmlns="http://www.w3.org/2000/svg" id="credentials-support-icon" width="41.879" height="41.755" viewBox="0 0 41.879 41.755">
    <defs>
        <style>
            .cls-1{fill:rgba(1,128,107,.09)}.cls-2,.cls-3{fill:#C9A86C}.cls-3{fill-rule:evenodd}
        </style>
    </defs>
    <circle id="Ellipse_69" cx="19.5" cy="19.5" r="19.5" class="cls-1" data-name="Ellipse 69" transform="translate(1.001 2.755)"/>
    <path id="Path_315" d="M69.663 71.131a2.749 2.749 0 0 0-1.383-2.04l-7.244-4.075a2.859 2.859 0 0 0-3.411.468l-2.544 2.544a1.5 1.5 0 0 1-1.941.151 47.461 47.461 0 0 1-9.531-9.53 1.5 1.5 0 0 1 .152-1.941l2.539-2.544a2.859 2.859 0 0 0 .469-3.412L42.7 43.508a2.748 2.748 0 0 0-2.04-1.383 2.916 2.916 0 0 0-2.476.847L35.5 45.655c-1.9 1.9-2 5.289-.281 9.556A39.686 39.686 0 0 0 44 67.784a39.67 39.67 0 0 0 12.573 8.787 14.828 14.828 0 0 0 5.408 1.217 5.656 5.656 0 0 0 4.148-1.5l2.683-2.683a2.92 2.92 0 0 0 .851-2.474zm-1.806 1.518l-.469.468-6.176-3.368a.678.678 0 1 0-.649 1.191l5.825 3.177-1.214 1.215c-1.465 1.465-4.414 1.459-8.09-.019a38.314 38.314 0 0 1-12.12-8.488A38.31 38.31 0 0 1 36.476 54.7c-1.477-3.676-1.484-6.625-.018-8.09l1.213-1.21.651 1.191a.678.678 0 1 0 1.19-.651l-.84-1.541.469-.468a1.585 1.585 0 0 1 1.333-.461 1.4 1.4 0 0 1 1.042.7l4.074 7.244a1.5 1.5 0 0 1-.245 1.787l-1.21 1.211-3.177-5.825a.679.679 0 1 0-1.191.65l3.368 6.174-.334.333a2.863 2.863 0 0 0-.281 3.709 48.758 48.758 0 0 0 9.81 9.81 2.863 2.863 0 0 0 3.71-.281l.333-.333 1.541.84a.678.678 0 0 0 .649-1.191l-1.189-.65 1.21-1.21a1.5 1.5 0 0 1 1.786-.238l7.244 4.075a1.4 1.4 0 0 1 .7 1.042 1.574 1.574 0 0 1-.461 1.333z" class="cls-2" data-name="Path 315" transform="translate(-34 -37.356)"/>
    <path id="Path_316" d="M74.775 57.629h-.769V51.8a.678.678 0 1 0-1.357 0v5.834h-3.54l1.263-5.687a.678.678 0 1 0-1.324-.294L67.6 58.161a.678.678 0 0 0 .662.825h4.386V61.2a.678.678 0 1 0 1.357 0v-2.214h.769a.678.678 0 0 0 0-1.357zm-8.683 2.895H61.1c.3-.777 1.13-1.271 2.335-1.929 1.486-.811 3.337-1.821 3.337-4.113a3.579 3.579 0 0 0-7.145 0 .678.678 0 1 0 1.357 0 2.227 2.227 0 0 1 4.432 0c0 1.387-.994 2.028-2.63 2.921-1.481.809-3.159 1.724-3.159 3.8a.678.678 0 0 0 .678.678h5.789a.678.678 0 0 0 0-1.356z" class="cls-3" data-name="Path 316" transform="translate(-42.258 -40.263)"/>
    <path id="Path_317" d="M77.679 63.336l-1.322.264a16.6 16.6 0 1 0-25.15-21.446.679.679 0 0 0 1.109.781A15.241 15.241 0 1 1 75.28 62.751l.3-1.511a.678.678 0 1 0-1.33-.266l-.724 3.618a.678.678 0 0 0 .8.8l3.618-.724a.678.678 0 1 0-.266-1.33z" class="cls-3" data-name="Path 317" transform="translate(-39.505 -35.102)"/>
    <path id="Path_318" d="M65.616 39.373a.678.678 0 0 0-.678.678V41.5a.678.678 0 0 0 1.356 0v-1.449a.678.678 0 0 0-.678-.678zM78.641 52.4h-1.447a.679.679 0 0 0 0 1.358h1.447a.678.678 0 1 0 0-1.357zm-22.712-5.7l-1.254-.723A.678.678 0 0 0 54 47.151l1.253.724a.678.678 0 1 0 .678-1.175zM77.235 59l-1.254-.724a.678.678 0 0 0-.678 1.175l1.253.724A.678.678 0 1 0 77.235 59zm-4.767-17.791a.678.678 0 0 0-.927.248l-.723 1.254a.678.678 0 0 0 1.175.678l.724-1.254a.678.678 0 0 0-.248-.926zm-12.3 21.306a.678.678 0 0 0-.926.248l-.724 1.253a.678.678 0 1 0 1.175.678l.724-1.253a.678.678 0 0 0-.249-.926zm17.316-16.291a.678.678 0 0 0-.926-.248L75.3 46.7a.678.678 0 1 0 .679 1.175l1.253-.723a.68.68 0 0 0 .252-.928zm-21.306 12.3a.678.678 0 0 0-.926-.248L54 59a.678.678 0 0 0 .679 1.175l1.253-.723a.68.68 0 0 0 .245-.927zm4.237-15.814l-.724-1.253a.678.678 0 1 0-1.175.678l.723 1.254a.679.679 0 1 0 1.175-.679zm12.3 21.306l-.724-1.254a.678.678 0 1 0-1.175.679l.723 1.253a.678.678 0 1 0 1.175-.678z" class="cls-3" data-name="Path 318" transform="translate(-40.335 -36.478)"/>
</svg>
