<svg xmlns="http://www.w3.org/2000/svg" width="42.603" height="44.398" viewBox="0 0 42.603 44.398">
    <defs>
        <style>
            .cls-1{fill:rgba(1,128,107,.09)}.cls-2,.cls-3{fill:#C9A86C}.cls-2{fill-rule:evenodd}
        </style>
    </defs>
    <g id="credentials-teaching-icon" transform="translate(.764 -.099)">
        <circle id="Ellipse_70" cx="20.939" cy="20.939" r="20.939" class="cls-1" data-name="Ellipse 70" transform="translate(0 1.895)"/>
        <g id="Group_475" data-name="Group 475" transform="translate(5.685)">
            <path id="Path_319" d="M17.8 1.323A12.275 12.275 0 0 0 2.575 19.806a.679.679 0 0 0 1.072-.834A10.916 10.916 0 0 1 17.191 2.536a.679.679 0 0 0 .609-1.213zm5.424 5.425a.68.68 0 0 0-1.213.612A10.916 10.916 0 0 1 5.578 20.9a.679.679 0 1 0-.835 1.072A12.275 12.275 0 0 0 23.228 6.748zm-1.751-2.587a12.455 12.455 0 0 0-1.084-1.084.68.68 0 1 0-.9 1.018 11.152 11.152 0 0 1 .966.966.679.679 0 1 0 1.018-.9z" class="cls-2" data-name="Path 319" transform="translate(4.039 4.048)"/>
            <path id="Path_320" d="M32.342 17.545a2.305 2.305 0 0 0 0-2.409l-.894-1.466a.956.956 0 0 1-.128-.645l.266-1.692a2.3 2.3 0 0 0-.924-2.233l-1.385-1.006a.956.956 0 0 1-.367-.547l-.4-1.667a2.3 2.3 0 0 0-1.7-1.705l-1.667-.4a.956.956 0 0 1-.547-.367L23.58 2.02a2.3 2.3 0 0 0-2.23-.92l-1.694.266a.956.956 0 0 1-.645-.128L17.545.34a2.3 2.3 0 0 0-2.409 0l-1.466.893a.956.956 0 0 1-.645.129L11.333 1.1a2.3 2.3 0 0 0-2.233.92L8.094 3.4a.956.956 0 0 1-.547.367l-1.667.4a2.3 2.3 0 0 0-1.705 1.7l-.4 1.667a.956.956 0 0 1-.367.547L2.02 9.1a2.3 2.3 0 0 0-.925 2.23l.266 1.694a.956.956 0 0 1-.128.645L.34 15.137a2.3 2.3 0 0 0 0 2.409l.893 1.466a.952.952 0 0 1 .129.645L1.1 21.349a2.3 2.3 0 0 0 .92 2.231l1.38 1.008a.962.962 0 0 1 .367.547l.4 1.667a2.3 2.3 0 0 0 1.7 1.705l.7.168-4.703 10.508a.679.679 0 0 0 .7.953l3.791-.454 2.183 3.132a.68.68 0 0 0 1.178-.114l4.81-10.732.61.372a2.311 2.311 0 0 0 2.409 0l.632-.385L22.994 42.7a.679.679 0 0 0 1.177.111l2.184-3.132 3.79.454a.68.68 0 0 0 .7-.953l-4.713-10.51.67-.162a2.3 2.3 0 0 0 1.7-1.705l.4-1.667a.959.959 0 0 1 .367-.547l1.385-1.008a2.3 2.3 0 0 0 .925-2.23l-.266-1.694a.952.952 0 0 1 .128-.645l.894-1.466zM8.967 41.052l-1.73-2.481a.679.679 0 0 0-.638-.286l-3 .359 4.287-9.574a.941.941 0 0 1 .207.207L9.1 30.662a2.329 2.329 0 0 0 .32.357l-2.258 5.04a.679.679 0 1 0 1.24.556l2.251-5.022a2.33 2.33 0 0 0 .678-.006l1.693-.266a.956.956 0 0 1 .3 0l-4.357 9.731zm20.148-2.409l-3-.359a.679.679 0 0 0-.638.286l-1.73 2.481-4.364-9.734a.967.967 0 0 1 .277 0l1.692.266a2.342 2.342 0 0 0 .706 0l2.253 5.025a.679.679 0 0 0 1.239-.556L23.279 31a2.287 2.287 0 0 0 .3-.338l1.008-1.385a.946.946 0 0 1 .228-.223l4.3 9.589zm2.067-21.805l-.893 1.462a2.317 2.317 0 0 0-.31 1.564l.266 1.692a.953.953 0 0 1-.382.922l-1.385 1.012a2.317 2.317 0 0 0-.888 1.327l-.4 1.666a.953.953 0 0 1-.7.7l-1.666.4a2.317 2.317 0 0 0-1.327.888l-1.008 1.385a.95.95 0 0 1-.92.382l-1.692-.266a2.317 2.317 0 0 0-1.565.31l-1.465.894a.951.951 0 0 1-.994 0l-1.466-.894a2.316 2.316 0 0 0-1.564-.31l-1.693.266a.95.95 0 0 1-.922-.382l-1.016-1.378a2.316 2.316 0 0 0-1.327-.888l-1.667-.4a.951.951 0 0 1-.7-.7l-.4-1.667a2.316 2.316 0 0 0-.898-1.334l-1.382-1.008a.951.951 0 0 1-.382-.92l.264-1.693a2.317 2.317 0 0 0-.31-1.565l-.89-1.465a.951.951 0 0 1 0-.994l.893-1.466a2.313 2.313 0 0 0 .307-1.564l-.266-1.693a.951.951 0 0 1 .382-.921L4.2 9.192a2.316 2.316 0 0 0 .888-1.326L5.5 6.2a.951.951 0 0 1 .7-.7l1.667-.4a2.316 2.316 0 0 0 1.326-.9L10.2 2.819a.951.951 0 0 1 .921-.382l1.692.266a2.316 2.316 0 0 0 1.565-.31l1.466-.893a.949.949 0 0 1 .994 0l1.466.893a2.314 2.314 0 0 0 1.564.311l1.694-.266a.951.951 0 0 1 .921.382L23.49 4.2a2.317 2.317 0 0 0 1.326.887l1.667.4a.954.954 0 0 1 .7.7l.4 1.667a2.316 2.316 0 0 0 .888 1.327l1.392 1.019a.95.95 0 0 1 .382.921l-.266 1.692a2.317 2.317 0 0 0 .31 1.564l.894 1.466a.949.949 0 0 1 0 .994z" class="cls-3" data-name="Path 320"/>
            <path id="Path_321" d="M15.959 5.775a1.216 1.216 0 0 0-1.023-.84l-4.088-.485L9.125.714A1.228 1.228 0 0 0 6.9.713L5.172 4.451l-4.087.485A1.228 1.228 0 0 0 .4 7.055L3.417 9.85l-.8 4.037a1.232 1.232 0 0 0 1.2 1.469 1.228 1.228 0 0 0 .6-.158l3.592-2.01L11.6 15.2a1.227 1.227 0 0 0 1.8-1.31l-.8-4.04 3.022-2.794a1.216 1.216 0 0 0 .337-1.281zM11.4 9.111a.68.68 0 0 0-.205.631l.821 4.131-3.674-2.057a.679.679 0 0 0-.664 0L4 13.873l.821-4.131a.679.679 0 0 0-.205-.631l-3.089-2.86 4.183-.5a.68.68 0 0 0 .536-.39L8.01 1.54l1.764 3.825a.679.679 0 0 0 .537.39l4.183.5L11.4 9.11z" class="cls-3" data-name="Path 321" transform="translate(8.33 8.452)"/>
        </g>
    </g>
</svg>
