<svg xmlns="http://www.w3.org/2000/svg" id="credentials-money-return-icon" width="47.829" height="47.829" viewBox="0 0 47.829 47.829">
    <defs>
        <style>
            .cls-1{fill:rgba(1,128,107,.09)}.cls-2,.cls-3{fill:#C9A86C}.cls-3{fill-rule:evenodd}
        </style>
    </defs>
    <circle id="Ellipse_67" cx="20.5" cy="20.5" r="20.5" class="cls-1" data-name="Ellipse 67" transform="translate(2.907 2.89)"/>
    <path id="Path_308" d="M60.767 44.29a16.477 16.477 0 1 0 16.477 16.477A16.5 16.5 0 0 0 60.767 44.29zm0 31.4a14.927 14.927 0 1 1 14.928-14.923 14.945 14.945 0 0 1-14.928 14.928z" class="cls-2" data-name="Path 308" transform="translate(-36.853 -36.853)"/>
    <path id="Path_309" d="M64.013 61.823v-6.04c2.531.2 4.235 1.381 4.235 2.448a.775.775 0 0 0 1.55 0c0-2.1-2.485-3.772-5.785-4v-.905a.775.775 0 0 0-1.55 0v.905c-3.3.229-5.785 1.9-5.785 4 0 2.81 2.672 3.907 5.785 4.775v6.04c-2.531-.2-4.235-1.381-4.235-2.448a.775.775 0 0 0-1.55 0c0 2.1 2.485 3.772 5.785 4v.902a.775.775 0 0 0 1.55 0v-.9c3.3-.229 5.785-1.9 5.785-4 .002-2.812-2.673-3.909-5.785-4.777zm-1.55-.431c-3.142-.929-4.235-1.772-4.235-3.161 0-1.067 1.7-2.245 4.235-2.448zm1.55 7.653v-5.608c3.142.929 4.235 1.772 4.235 3.161 0 1.067-1.7 2.245-4.235 2.448z" class="cls-2" data-name="Path 309" transform="translate(-39.323 -38.5)"/>
    <path id="Path_310" d="M75.824 42a23.913 23.913 0 0 0-34.748.982l.424-2.97a.775.775 0 1 0-1.534-.22l-.826 5.785a.775.775 0 0 0 1.012.845l4.959-1.652a.775.775 0 0 0-.49-1.47l-2.491.83a22.365 22.365 0 1 1 16.784 37.149.775.775 0 1 0 0 1.55A23.914 23.914 0 0 0 75.824 42zM55.719 81.052a22.74 22.74 0 0 1-.789-.127.775.775 0 0 0-.275 1.525c.279.05.562.1.844.136a.775.775 0 0 0 .219-1.534zm-3.787-.885c-.488-.16-.977-.339-1.452-.533a.775.775 0 0 0-.584 1.435c.509.208 1.032.4 1.553.571a.775.775 0 1 0 .484-1.472zM37.064 63.706q-.165-.756-.277-1.521a.775.775 0 0 0-1.533.224c.08.543.179 1.09.3 1.627a.775.775 0 0 0 1.513-.33zM36.8 52.028a.775.775 0 0 0-.953.543q-.219.8-.382 1.609a.775.775 0 1 0 1.519.306q.152-.758.357-1.505a.775.775 0 0 0-.542-.953zM38.518 68.1q-.318-.7-.586-1.431a.775.775 0 0 0-1.454.538c.191.515.4 1.03.628 1.53a.775.775 0 1 0 1.412-.637zm-2.655-11.37a.774.774 0 0 0-.82.727q-.049.826-.042 1.653a.775.775 0 0 0 .775.769h.006a.775.775 0 0 0 .769-.781v-.187c0-.453.014-.911.04-1.361a.775.775 0 0 0-.727-.821zM47.7 78.271q-.669-.388-1.311-.822a.775.775 0 1 0-.869 1.283c.456.308.927.6 1.4.88a.775.775 0 1 0 .778-1.34zM40.851 72.1q-.457-.625-.869-1.279a.775.775 0 1 0-1.311.826c.293.464.605.925.929 1.367a.775.775 0 0 0 1.251-.914zm3.108 3.438a20.5 20.5 0 0 1-1.114-1.074.775.775 0 1 0-1.113 1.078c.382.394.782.78 1.191 1.148a.775.775 0 1 0 1.037-1.152zM38.334 48.3a.775.775 0 0 0-1.033.367c-.122.256-.24.517-.352.777a.775.775 0 1 0 1.423.615c.1-.243.216-.488.33-.728a.775.775 0 0 0-.368-1.033z" class="cls-3" data-name="Path 310" transform="translate(-35 -35)"/>
</svg>
